<svg width="49" height="49" xmlns="http://www.w3.org/2000/svg">

 <g>
  <title>background</title>
  <rect fill="none" id="canvas_background" height="51" width="51" y="-1" x="-1"/>
 </g>
 <g>
  <title>Layer 1</title>
  <g stroke="null" id="svg_28">
   <circle stroke="null" id="svg_1" fill="#ADA323" r="11.86634" cy="14.782683" cx="13.137688"/>
   <circle stroke="null" id="svg_2" fill="#BC153A" r="10.014741" cy="14.782683" cx="13.137688"/>
   <path stroke="null" id="svg_10" fill="#CC1F3C" d="m19.615544,13.257483c-0.440314,-2.519281 -1.21651,-2.485006 -1.833874,-2.162312c-0.310119,0.162264 -0.580004,0.795153 -0.760132,1.062685c-0.386686,0.575061 -1.457759,0.996969 -2.186228,1.165788c-0.200656,-0.273698 -0.456326,-0.496623 -0.748996,-0.651832l0.076773,-0.004389c-0.055629,-0.647833 -0.092425,-2.299467 0.419376,-2.894582c0.209175,-0.243146 0.642356,-0.772711 0.837932,-1.083128c0.506926,-0.805041 -0.318022,-1.524312 -2.332435,-1.484538c-2.367998,-0.065272 -2.500606,0.763267 -2.339363,1.484538c0.080827,0.362524 0.595656,0.781488 0.79934,1.028633c0.526017,0.6375 0.644204,2.272191 0.572511,2.985129c-0.276608,0.158264 -0.516677,0.380078 -0.706556,0.646333c-0.724825,-0.146876 -1.899664,-0.583449 -2.308879,-1.192174c-0.180129,-0.267532 -0.44986,-0.900422 -0.760132,-1.062685c-0.617364,-0.322694 -1.393559,-0.357025 -1.833874,2.162312c-0.460791,2.123149 0.014831,3.147837 0.848914,2.781147c0.321512,-0.141599 0.890944,-0.488235 1.154773,-0.658165c0.594835,-0.383633 1.899869,-0.08527 2.55018,0.117156c0.074309,0.251923 0.188237,0.484291 0.331416,0.691607c-0.514419,0.583227 -1.388325,1.335051 -2.034324,1.393545c-0.304833,0.02772 -0.944572,-0.051218 -1.233753,0.151487c-0.575334,0.403632 -1.005487,1.103793 0.754898,2.819366c1.437026,1.528534 2.493113,1.620637 2.636498,0.658609c0.055219,-0.370857 0.077183,-1.077406 0.080006,-1.410044c0.005902,-0.754046 0.930767,-1.815175 1.42589,-2.307577c0.492506,0.520788 1.345833,1.566086 1.336134,2.299911c-0.004259,0.332638 0.002412,1.039576 0.049984,1.411544c0.122857,0.965527 1.180535,0.899588 2.649687,-0.592893c1.796514,-1.671188 1.381397,-2.381904 0.814787,-2.79959c-0.284716,-0.209926 -0.926097,-0.147043 -1.230314,-0.182262c-0.594014,-0.068827 -1.368413,-0.730492 -1.879547,-1.300554c0.203889,-0.2517 0.359487,-0.549563 0.449654,-0.878701c0.684797,-0.196761 1.845472,-0.426685 2.396634,-0.071438c0.264035,0.16993 0.833467,0.516844 1.154773,0.658165c0.833416,0.36669 1.308832,-0.657943 0.848247,-2.781091zm-6.71813,3.861831c0.058093,0.006611 0.117161,0.009444 0.176485,0.011221l-0.085292,0.09277l-0.091193,-0.103991z"/>
   <g stroke="null" id="svg_11"/>
   <g stroke="null" id="svg_12"/>
   <g stroke="null" id="svg_13"/>
   <g stroke="null" id="svg_14"/>
   <g stroke="null" id="svg_15"/>
   <g stroke="null" id="svg_16"/>
   <g stroke="null" id="svg_17"/>
   <g stroke="null" id="svg_18"/>
   <g stroke="null" id="svg_19"/>
   <g stroke="null" id="svg_20"/>
   <g stroke="null" id="svg_21"/>
   <g stroke="null" id="svg_22"/>
   <g stroke="null" id="svg_23"/>
   <g stroke="null" id="svg_24"/>
   <g stroke="null" id="svg_25"/>
   <g stroke="null" id="svg_27">
    <g stroke="null" id="svg_4" opacity="0.3">
     <circle stroke="null" id="svg_5" fill="#FFFFFF" r="1.878158" cy="6.110216" cx="19.163273"/>
     <circle stroke="null" id="svg_6" fill="#FFFFFF" r="0.939196" cy="9.816615" cx="22.483746"/>
    </g>
    <g stroke="null" id="svg_7" opacity="0.2">
     <path stroke="null" id="svg_8" d="m2.263616,17.136868c-1.028016,-6.613703 2.57353,-12.036564 5.973804,-15.54887c-4.828011,2.102928 -8.23742,7.216039 -8.23742,13.194464c0,7.854039 5.881789,14.220874 13.137483,14.220874c2.256072,0 4.379178,-0.616391 6.234349,-1.700852c-7.522705,1.456207 -15.789377,-1.681076 -17.108216,-10.165616z"/>
    </g>
    <g stroke="null" id="svg_26">
     <circle stroke="null" id="svg_3" fill="#CC1F3C" r="9.338271" cy="14.782683" cx="13.137688"/>
     <path stroke="null" id="svg_9" fill="#AF143C" d="m20.251434,13.014337c-0.686028,-3.4547 -1.826176,-3.392927 -2.558699,-2.899415c-0.368212,0.247756 -0.64056,0.628501 -0.832441,1.049464c-0.467308,1.026855 -1.34727,1.365826 -2.081024,1.456818c-0.140921,-0.826595 -0.127116,-2.008603 0.797749,-2.828587c0.338549,-0.300085 0.623881,-0.672497 0.765624,-1.120958c0.278661,-0.88309 0.075746,-2.096762 -3.184582,-2.047544c-3.262175,-0.1321 -3.487824,1.079406 -3.226868,1.969495c0.131171,0.44735 0.404751,0.827039 0.734576,1.131735c0.884016,0.817318 0.901105,1.952552 0.756694,2.770815c-0.733139,-0.070327 -1.615153,-0.383411 -2.107453,-1.38538c-0.205531,-0.418353 -0.486604,-0.794264 -0.865131,-1.032577c-0.745147,-0.469126 -1.884422,-0.492235 -2.480079,2.977852c-0.759927,3.436701 0.292876,3.913937 1.150462,3.811724c0.431128,-0.051218 0.828592,-0.26731 1.169553,-0.557507c0.861282,-0.732936 1.827151,-0.592671 2.532475,-0.311528c-0.461201,0.554396 -1.143996,1.050131 -2.082461,0.953861c-0.43585,-0.044607 -0.880577,0.002444 -1.27296,0.213259c-0.772141,0.414853 -1.41732,1.431542 0.930767,3.880496c2.231337,2.579109 3.179347,1.89078 3.57291,1.059408c0.197782,-0.417686 0.250025,-0.895811 0.21405,-1.363659c-0.074309,-0.966638 0.340961,-1.674021 0.825564,-2.164478c0.502615,0.499012 0.945188,1.229949 0.857843,2.230195c-0.041414,0.471737 0.002053,0.953417 0.196807,1.377936c0.383402,0.835816 1.322688,1.5342 3.584867,-1.007523c2.382624,-2.415345 1.746734,-3.441534 0.978853,-3.86733c-0.385865,-0.214092 -0.827771,-0.270643 -1.259771,-0.231924c-0.906801,0.081771 -1.566811,-0.382522 -2.020109,-0.917587c0.704298,-0.335471 1.729902,-0.572672 2.662055,0.171485c0.352354,0.281142 0.756078,0.488902 1.192339,0.526732c0.859485,0.074827 1.896277,-0.437406 1.04839,-3.845277z"/>
    </g>
   </g>
  </g>
 </g>
</svg>